# xmcd
#
# Track frame offsets:
#	150
#	12117
#	32002
#	46354
#	60595
#	82532
#	100882
#	120871
#	136287
#	155032
#	173618
#	185632
#	204772
#	224546
#	245582
#	264529
#	276962
#	295780
#	308660
#	332771
#
# Disc length: 4671 seconds
# Revision: 0
# Processed by: cddbd v1.5.2PL0 Copyright (c) Steve Scherf et al.
# Submitted via: dBpowerAMP V12.0
#
DISCID=10123d14
DTITLE=Steve Earle - The Definitive Collection 1986-1992 - CD2
DYEAR=2013
DGENRE=Country
TTITLE0=Down the Road
TTITLE1=Nothing But a Child
TTITLE2=West Nashville Boogie
TTITLE3=My Old Friend The Blues
TTITLE4=Little Rock 'n' Roller
TTITLE5=I Ain't Ever Satisfied
TTITLE6=The Week of Living Dangerously
TTITLE7=Goodbye's All We've Got Left
TTITLE8=The Rain Came Down
TTITLE9=Fearless Heart
TTITLE10=Sweet Little '66
TTITLE11=Even When I'm Blue
TTITLE12=You Belong to Me
TTITLE13=Have Mercy
TTITLE14=Country Girl
TTITLE15=Promise You Anything
TTITLE16=When the People Find Out
TTITLE17=Nowhere Road
TTITLE18=Nebraska (Live 1988)
TTITLE19=This Highway's Mine (Roadmaster)
EXTD=
EXTT0=
EXTT1=
EXTT2=
EXTT3=
EXTT4=
EXTT5=
EXTT6=
EXTT7=
EXTT8=
EXTT9=
EXTT10=
EXTT11=
EXTT12=
EXTT13=
EXTT14=
EXTT15=
EXTT16=
EXTT17=
EXTT18=
EXTT19=
PLAYORDER=
